<svg width="24" height="24" viewBox="0 0 24 24" fill="none" xmlns="http://www.w3.org/2000/svg">
<path d="M15.1508 8.39994C14.3843 8.39731 13.6249 8.54589 12.9159 8.83704C12.2069 9.12819 11.5623 9.55636 11.0189 10.0969C10.4756 10.6375 10.0442 11.2799 9.74933 11.9873C9.4545 12.6948 9.3021 13.4535 9.30075 14.2199V20.0999C9.30075 20.3387 9.39563 20.5676 9.56438 20.7364C9.73313 20.9051 9.9621 20.9999 10.2008 20.9999H12.3008C12.5395 20.9999 12.7684 20.9051 12.9372 20.7364C13.106 20.5676 13.2008 20.3387 13.2008 20.0999V14.2199C13.2006 13.9474 13.2578 13.6778 13.3688 13.4288C13.4798 13.1798 13.642 12.957 13.8449 12.7749C14.0477 12.5928 14.2867 12.4555 14.5461 12.3719C14.8056 12.2884 15.0798 12.2605 15.3508 12.29C15.8368 12.3512 16.2834 12.5886 16.606 12.9573C16.9286 13.3259 17.1047 13.8002 17.1008 14.29V20.0999C17.1008 20.3387 17.1956 20.5676 17.3644 20.7364C17.5331 20.9051 17.7621 20.9999 18.0008 20.9999H20.1008C20.3395 20.9999 20.5684 20.9051 20.7372 20.7364C20.9059 20.5676 21.0008 20.3387 21.0008 20.0999V14.2199C20.9995 13.4535 20.847 12.6948 20.5523 11.9873C20.2574 11.2799 19.826 10.6375 19.2826 10.0969C18.7393 9.55636 18.0947 9.12819 17.3857 8.83704C16.6767 8.54589 15.9173 8.39731 15.1508 8.39994Z" fill="#006097"/>
<path d="M6.6 9.2998H3.9C3.40294 9.2998 3 9.70278 3 10.1998V20.0998C3 20.5969 3.40294 20.9998 3.9 20.9998H6.6C7.09705 20.9998 7.5 20.5969 7.5 20.0998V10.1998C7.5 9.70278 7.09705 9.2998 6.6 9.2998Z" fill="#006097"/>
<path d="M5.25 7.5C6.49264 7.5 7.5 6.49264 7.5 5.25C7.5 4.00736 6.49264 3 5.25 3C4.00736 3 3 4.00736 3 5.25C3 6.49264 4.00736 7.5 5.25 7.5Z" fill="#006097"/>
</svg>
