<svg width="127" height="20" viewBox="0 0 127 20" fill="none" xmlns="http://www.w3.org/2000/svg">
<g clip-path="url(#clip0_1096_19678)">
<path d="M24.6582 4.47727C24.5902 3.81566 24.3033 3.30051 23.7975 2.93182C23.2967 2.56313 22.645 2.37879 21.8427 2.37879C21.2786 2.37879 20.7947 2.46717 20.3911 2.64394C19.9875 2.82071 19.6787 3.06061 19.4648 3.36364C19.2508 3.66667 19.1414 4.01263 19.1365 4.40152C19.1365 4.72475 19.207 5.00505 19.3481 5.24242C19.4939 5.4798 19.6909 5.68182 19.9389 5.84849C20.1869 6.0101 20.4616 6.14646 20.7631 6.25758C21.0646 6.36869 21.3686 6.46212 21.6749 6.53788L23.0754 6.90152C23.6395 7.03788 24.1817 7.22222 24.702 7.45455C25.2272 7.68687 25.6965 7.9798 26.1098 8.33333C26.528 8.68687 26.8587 9.11364 27.1018 9.61364C27.345 10.1136 27.4665 10.6995 27.4665 11.3712C27.4665 12.2803 27.2428 13.0808 26.7955 13.7727C26.3481 14.4596 25.7013 14.9975 24.8552 15.3864C24.0139 15.7702 22.9952 15.9621 21.7989 15.9621C20.6367 15.9621 19.6277 15.7753 18.7718 15.4015C17.9208 15.0278 17.2546 14.4823 16.7732 13.7652C16.2966 13.048 16.0389 12.1742 16 11.1439H18.6624C18.7013 11.6843 18.8618 12.1338 19.1438 12.4924C19.4259 12.851 19.793 13.1187 20.2452 13.2955C20.7023 13.4722 21.2129 13.5606 21.777 13.5606C22.3654 13.5606 22.8809 13.4697 23.3234 13.2879C23.7708 13.101 24.1209 12.8434 24.3738 12.5152C24.6266 12.1818 24.7555 11.7929 24.7604 11.3485C24.7555 10.9444 24.6412 10.6111 24.4175 10.3485C24.1938 10.0808 23.8802 9.85859 23.4766 9.68182C23.0778 9.5 22.611 9.33838 22.0761 9.19697L20.3765 8.74242C19.1462 8.41414 18.1737 7.91667 17.4588 7.25C16.7489 6.57828 16.3939 5.68687 16.3939 4.57576C16.3939 3.66162 16.6322 2.86111 17.1087 2.17424C17.5901 1.48737 18.2442 0.954546 19.0709 0.575757C19.8975 0.191919 20.8336 0 21.8791 0C22.9392 0 23.868 0.191919 24.6655 0.575757C25.4679 0.954546 26.0976 1.48232 26.5547 2.15909C27.0119 2.83081 27.2477 3.60354 27.2623 4.47727H24.6582Z" fill="#0B0D0E"/>
<path d="M35.3571 4.09091V6.21212H28.9163V4.09091H35.3571ZM30.5064 1.30303H33.1469V12.2273C33.1469 12.596 33.2004 12.8788 33.3074 13.0758C33.4192 13.2677 33.5651 13.399 33.745 13.4697C33.925 13.5404 34.1243 13.5758 34.3432 13.5758C34.5085 13.5758 34.6592 13.5631 34.7954 13.5379C34.9364 13.5126 35.0434 13.4899 35.1163 13.4697L35.5613 15.6136C35.4203 15.6641 35.2185 15.7197 34.9559 15.7803C34.6981 15.8409 34.3821 15.8763 34.0076 15.8864C33.3463 15.9066 32.7506 15.803 32.2205 15.5758C31.6905 15.3434 31.2699 14.9848 30.9586 14.5C30.6523 14.0152 30.5015 13.4091 30.5064 12.6818V1.30303Z" fill="#0B0D0E"/>
<path d="M42.3322 15.9545C41.238 15.9545 40.2898 15.7045 39.4874 15.2045C38.685 14.7045 38.0626 14.0051 37.6201 13.1061C37.1824 12.2071 36.9636 11.1566 36.9636 9.95455C36.9636 8.75253 37.1824 7.6995 37.6201 6.79545C38.0626 5.89141 38.685 5.18939 39.4874 4.68939C40.2898 4.18939 41.238 3.93939 42.3322 3.93939C43.4263 3.93939 44.3745 4.18939 45.1769 4.68939C45.9793 5.18939 46.5993 5.89141 47.0369 6.79545C47.4794 7.6995 47.7007 8.75253 47.7007 9.95455C47.7007 11.1566 47.4794 12.2071 47.0369 13.1061C46.5993 14.0051 45.9793 14.7045 45.1769 15.2045C44.3745 15.7045 43.4263 15.9545 42.3322 15.9545ZM42.3467 13.7576C42.94 13.7576 43.436 13.5884 43.8348 13.25C44.2335 12.9066 44.5301 12.447 44.7247 11.8712C44.924 11.2955 45.0237 10.654 45.0237 9.94697C45.0237 9.23485 44.924 8.59091 44.7247 8.01515C44.5301 7.43434 44.2335 6.97222 43.8348 6.62879C43.436 6.28535 42.94 6.11364 42.3467 6.11364C41.7389 6.11364 41.2332 6.28535 40.8295 6.62879C40.4308 6.97222 40.1317 7.43434 39.9324 8.01515C39.7378 8.59091 39.6406 9.23485 39.6406 9.94697C39.6406 10.654 39.7378 11.2955 39.9324 11.8712C40.1317 12.447 40.4308 12.9066 40.8295 13.25C41.2332 13.5884 41.7389 13.7576 42.3467 13.7576Z" fill="#0B0D0E"/>
<path d="M54.829 15.9545C53.7105 15.9545 52.7501 15.6995 51.9478 15.1894C51.1503 14.6793 50.5351 13.9747 50.1023 13.0758C49.6744 12.1717 49.4604 11.1313 49.4604 9.95455C49.4604 8.77273 49.6793 7.7298 50.1169 6.82576C50.5546 5.91667 51.1722 5.2096 51.9697 4.70455C52.772 4.19445 53.7203 3.93939 54.8144 3.93939C55.7237 3.93939 56.5285 4.11364 57.2288 4.46212C57.9339 4.80556 58.4956 5.29293 58.9138 5.92424C59.332 6.55051 59.5702 7.28283 59.6286 8.12121H57.1048C57.0027 7.56061 56.7595 7.09343 56.3754 6.7197C55.9961 6.34091 55.4879 6.15152 54.8509 6.15152C54.3111 6.15152 53.837 6.30303 53.4285 6.60606C53.02 6.90404 52.7015 7.33333 52.473 7.89394C52.2493 8.45455 52.1374 9.12626 52.1374 9.90909C52.1374 10.702 52.2493 11.3838 52.473 11.9545C52.6966 12.5202 53.0103 12.9571 53.4139 13.2652C53.8224 13.5682 54.3014 13.7197 54.8509 13.7197C55.2399 13.7197 55.5876 13.6439 55.8939 13.4924C56.2052 13.3359 56.4653 13.1111 56.6744 12.8182C56.8835 12.5253 57.027 12.1692 57.1048 11.75H59.6286C59.5654 12.5732 59.332 13.303 58.9283 13.9394C58.5247 14.5707 57.9752 15.0657 57.2799 15.4242C56.5845 15.7778 55.7675 15.9545 54.829 15.9545Z" fill="#0B0D0E"/>
<path d="M64.2039 12.0758L64.1966 8.76515H64.6197L68.6461 4.09091H71.7315L66.7788 9.81818H66.2317L64.2039 12.0758ZM61.7968 15.7273V0.212121H64.4373V15.7273H61.7968ZM68.8284 15.7273L65.1813 10.4318L66.9611 8.5L71.9868 15.7273H68.8284Z" fill="#0B0D0E"/>
<path d="M73.6226 15.7273H71.7261L79.6914 0.212121H81.5587L84.5639 15.7273H82.6674L80.3041 2.66667H80.1874L73.6226 15.7273ZM75.2856 9.66667H82.93L82.6674 11.3333H75.0231L75.2856 9.66667Z" fill="url(#paint0_linear_1096_19678)"/>
<path d="M85.9571 20.0909L88.5393 4.09091H90.2023L89.9106 5.93939H90.1148C90.2704 5.73737 90.4844 5.4798 90.7567 5.16667C91.0339 4.84849 91.4059 4.56566 91.8727 4.31818C92.3444 4.06566 92.945 3.93939 93.6744 3.93939C94.6178 3.93939 95.408 4.18434 96.045 4.67424C96.682 5.16414 97.1319 5.85859 97.3944 6.75758C97.657 7.65657 97.6911 8.71717 97.4966 9.93939C97.302 11.1717 96.93 12.2399 96.3805 13.1439C95.8311 14.0429 95.16 14.7399 94.3673 15.2348C93.5747 15.7247 92.7116 15.9697 91.7779 15.9697C91.0582 15.9697 90.5014 15.846 90.1075 15.5985C89.7136 15.346 89.4267 15.0606 89.2468 14.7424C89.0669 14.4192 88.9283 14.1515 88.831 13.9394H88.6851L87.6931 20.0909H85.9571ZM89.2979 9.90909C89.1617 10.7879 89.1617 11.5631 89.2979 12.2348C89.4389 12.9015 89.7185 13.4242 90.1367 13.803C90.5598 14.1768 91.1165 14.3636 91.8071 14.3636C92.5268 14.3636 93.1565 14.1667 93.6963 13.7727C94.2409 13.3737 94.6883 12.8384 95.0384 12.1667C95.3934 11.4899 95.639 10.7374 95.7751 9.90909C95.9016 9.09091 95.8967 8.35354 95.7605 7.69697C95.6244 7.03535 95.3472 6.51263 94.929 6.12879C94.5108 5.7399 93.937 5.54545 93.2076 5.54545C92.5073 5.54545 91.8873 5.7298 91.3475 6.09849C90.8126 6.46212 90.3701 6.97222 90.02 7.62879C89.6747 8.2803 89.434 9.0404 89.2979 9.90909Z" fill="url(#paint1_linear_1096_19678)"/>
<path d="M98.494 20.0909L101.076 4.09091H102.739L102.448 5.93939H102.652C102.807 5.73737 103.021 5.4798 103.294 5.16667C103.571 4.84849 103.943 4.56566 104.41 4.31818C104.881 4.06566 105.482 3.93939 106.211 3.93939C107.155 3.93939 107.945 4.18434 108.582 4.67424C109.219 5.16414 109.669 5.85859 109.931 6.75758C110.194 7.65657 110.228 8.71717 110.034 9.93939C109.839 11.1717 109.467 12.2399 108.917 13.1439C108.368 14.0429 107.697 14.7399 106.904 15.2348C106.112 15.7247 105.248 15.9697 104.315 15.9697C103.595 15.9697 103.038 15.846 102.644 15.5985C102.251 15.346 101.964 15.0606 101.784 14.7424C101.604 14.4192 101.465 14.1515 101.368 13.9394H101.222L100.23 20.0909H98.494ZM101.835 9.90909C101.699 10.7879 101.699 11.5631 101.835 12.2348C101.976 12.9015 102.255 13.4242 102.674 13.803C103.097 14.1768 103.653 14.3636 104.344 14.3636C105.064 14.3636 105.693 14.1667 106.233 13.7727C106.778 13.3737 107.225 12.8384 107.575 12.1667C107.93 11.4899 108.176 10.7374 108.312 9.90909C108.439 9.09091 108.434 8.35354 108.297 7.69697C108.161 7.03535 107.884 6.51263 107.466 6.12879C107.048 5.7399 106.474 5.54545 105.745 5.54545C105.044 5.54545 104.424 5.7298 103.884 6.09849C103.35 6.46212 102.907 6.97222 102.557 7.62879C102.212 8.2803 101.971 9.0404 101.835 9.90909Z" fill="url(#paint2_linear_1096_19678)"/>
</g>
<defs>
<linearGradient id="paint0_linear_1096_19678" x1="84.8696" y1="1.62137" x2="61.5343" y2="48.6142" gradientUnits="userSpaceOnUse">
<stop stop-color="#3F4DCF"/>
<stop offset="0.675" stop-color="#282490"/>
</linearGradient>
<linearGradient id="paint1_linear_1096_19678" x1="84.8696" y1="1.62137" x2="61.5343" y2="48.6142" gradientUnits="userSpaceOnUse">
<stop stop-color="#3F4DCF"/>
<stop offset="0.675" stop-color="#282490"/>
</linearGradient>
<linearGradient id="paint2_linear_1096_19678" x1="84.8696" y1="1.62137" x2="61.5343" y2="48.6142" gradientUnits="userSpaceOnUse">
<stop stop-color="#3F4DCF"/>
<stop offset="0.675" stop-color="#282490"/>
</linearGradient>
<clipPath id="clip0_1096_19678">
<rect width="95" height="20" fill="white" transform="translate(16)"/>
</clipPath>
</defs>
</svg>
